<?xml version="1.0" encoding="UTF-8"?><svg xmlns="http://www.w3.org/2000/svg" xmlns:xlink="http://www.w3.org/1999/xlink" class="svg-top" data-height="117" data-width="203" logoid="1" version="1.1" viewBox="0 0 203 117" x="0" y="0">    <rect class="svg-background" fill="#e5dbcf" height="100%" width="100%"/>            <g data-gtagadded="1"><svg class="svg-icon" data-default-height="34.4444420112015" data-raw-height="60" data-raw-x="0" data-raw-y="0" fill="#373b4d" height="34.4444420112015" icon-type="common" x="0" y="25">            <svg version="1.1" viewBox="0 0 100 100" x="0px" xml:space="preserve" xmlns="http://www.w3.org/2000/svg" xmlns:xlink="http://www.w3.org/1999/xlink" y="0px"><path d="M78.4,5H21.6C12.4,5,5,12.4,5,21.6v56.8C5,87.6,12.4,95,21.6,95h56.8C87.6,95,95,87.6,95,78.4V21.6C95,12.4,87.6,5,78.4,5z   M84.1,44.9c2.5-4,4.4-7.8,5.9-11v27.1c-1.7-3.1-3.4-6-5.3-8.7c0.7-0.9,1-2.1,1-3.3C85.8,47.3,85.1,45.9,84.1,44.9z M90,21.6v5.2  c-1.4,3.8-3.9,10-8.1,16.6c-0.6-0.2-1.4-0.4-2.1-0.4c-0.8,0-1.6,0.2-2.3,0.5C71.1,36.8,63.8,32,55.5,29.1c-5.8-2-11.6-2.9-17.1-3  c-0.2-0.8-0.7-1.6-1.2-2.2c3.9-5,8.6-9.6,14.1-13.9h27.1C84.8,10,90,15.2,90,21.6z M82.8,48.9c0,1.6-1.3,2.9-2.9,2.9  c-1.6,0-2.9-1.3-2.9-2.9s1.3-2.9,2.9-2.9C81.5,46,82.8,47.3,82.8,48.9z M75.2,52.5C70.5,57.9,64.7,63,57.3,66.8  c-1.1-1.1-2.6-1.8-4.3-1.8c-0.7,0-1.3,0.1-1.9,0.3c-6-8.5-11.8-19.1-15.9-32.2c1.7-0.8,3-2.4,3.4-4.3c5.2,0.1,10.7,1,16.1,2.8  c7.7,2.7,14.7,7.2,20.8,13.5c-0.9,1-1.4,2.4-1.4,3.8C74,50.3,74.5,51.5,75.2,52.5z M23.3,78.4c1.4-0.6,2.5-1.6,3.1-3  c1.4,0.1,2.8,0.2,4.1,0.2c6,0,11.8-0.8,17.2-2.3c0.9,2,3,3.4,5.3,3.4c1.1,0,2.1-0.3,3-0.8c5.5,6.3,10.8,11,15,14.2H26  C25.2,87.3,24.1,83.3,23.3,78.4z M32.8,24.8c1.6,0,2.9,1.3,2.9,2.9s-1.3,2.9-2.9,2.9s-2.9-1.3-2.9-2.9S31.2,24.8,32.8,24.8z   M30.1,10h17.1c-4.7,4-8.7,8.2-12,12.4c-0.7-0.3-1.5-0.5-2.4-0.5c-0.2,0-0.4,0-0.6,0C31.4,18.1,30.6,14.1,30.1,10z M30.9,33.3  c0.5,0.2,1.1,0.3,1.7,0.3c4.3,13.7,10.3,24.6,16.2,33.1c-1,1-1.7,2.4-1.7,4c-6.3,1.8-13.1,2.5-20.3,2.1c-0.1-2.7-2-5-4.5-5.6  c0-0.9,0-1.8,0-2.8C22.7,53.2,25.6,42.7,30.9,33.3z M19.8,64.5c0,0.9,0,1.9,0,2.8c-2.1,0.5-3.8,2.1-4.4,4.2  c-1.8-0.3-3.6-0.8-5.4-1.2V34c4.4-1.7,10.4-3.6,17.2-4.6c0.3,1,0.9,1.8,1.6,2.5C22.1,43.8,20,55.3,19.8,64.5z M21,70.1  c1.6,0,2.9,1.3,2.9,2.9s-1.3,2.9-2.9,2.9s-2.9-1.3-2.9-2.9S19.4,70.1,21,70.1z M50.2,70.8c0-1.6,1.3-2.9,2.9-2.9  c1.6,0,2.9,1.3,2.9,2.9c0,1.6-1.3,2.9-2.9,2.9C51.4,73.7,50.2,72.4,50.2,70.8z M21.6,10h5.8c0.6,4.5,1.3,8.7,2.3,12.8  c-1.4,0.9-2.4,2.3-2.7,4c-6.7,0.9-12.6,2.7-17,4.4v-9.5C10,15.2,15.2,10,21.6,10z M10,78.4v-5.5c1.8,0.4,3.6,0.8,5.3,1.2  c0.5,2.6,2.7,4.6,5.4,4.8c0.7,4.6,1.7,8.4,2.6,11.2h-1.6C15.2,90,10,84.8,10,78.4z M78.4,90h-2.9C71.2,87,64.8,81.8,58,74  c0.6-0.9,0.9-2,0.9-3.2c0-0.6-0.1-1.2-0.3-1.8c7.6-3.9,13.7-9.2,18.6-14.9c0.8,0.4,1.7,0.6,2.6,0.6c1.1,0,2-0.3,2.9-0.8  c2.6,3.8,5.1,8,7.3,12.6v11.7C90,84.8,84.8,90,78.4,90z"/></svg>    </svg><svg class="svgText" fill="#373b4d" font-family="Quicksand" x="22" y="58.0"><path d="M12.28 23.52L12.28 23.52Q12.60 23.52 12.81 23.75L12.81 23.75L12.81 23.75Q13.03 23.98 13.03 24.27L13.03 24.27L13.03 24.27Q13.03 24.60 12.81 24.80L12.81 24.80L12.81 24.80Q12.60 25 12.28 25L12.28 25L3.10 25L3.10 25Q2.78 25 2.56 24.79L2.56 24.79L2.56 24.79Q2.35 24.57 2.35 24.25L2.35 24.25L2.35 8.25L2.35 8.25Q2.35 7.93 2.56 7.71L2.56 7.71L2.56 7.71Q2.78 7.50 3.10 7.50L3.10 7.50L12.28 7.50L12.28 7.50Q12.60 7.50 12.81 7.71L12.81 7.71L12.81 7.71Q13.03 7.93 13.03 8.25L13.03 8.25L13.03 8.25Q13.03 8.57 12.81 8.77L12.81 8.77L12.81 8.77Q12.60 8.97 12.28 8.97L12.28 8.97L3.93 8.97L3.93 15.25L11.15 15.25L11.15 15.25Q11.48 15.25 11.69 15.46L11.69 15.46L11.69 15.46Q11.90 15.67 11.90 16L11.90 16L11.90 16Q11.90 16.32 11.69 16.52L11.69 16.52L11.69 16.52Q11.48 16.73 11.15 16.73L11.15 16.73L3.93 16.73L3.93 23.52L12.28 23.52ZM30.70 7.50L30.70 7.50Q31.03 7.50 31.24 7.70L31.24 7.70L31.24 7.70Q31.45 7.90 31.45 8.22L31.45 8.22L31.45 8.22Q31.45 8.55 31.24 8.74L31.24 8.74L31.24 8.74Q31.03 8.93 30.70 8.93L30.70 8.93L25.53 8.93L25.53 24.25L25.53 24.25Q25.53 24.57 25.30 24.79L25.30 24.79L25.30 24.79Q25.08 25 24.75 25L24.75 25L24.75 25Q24.40 25 24.19 24.79L24.19 24.79L24.19 24.79Q23.98 24.57 23.98 24.25L23.98 24.25L23.98 8.93L18.80 8.93L18.80 8.93Q18.48 8.93 18.26 8.72L18.26 8.72L18.26 8.72Q18.05 8.52 18.05 8.20L18.05 8.20L18.05 8.20Q18.05 7.90 18.26 7.70L18.26 7.70L18.26 7.70Q18.48 7.50 18.80 7.50L18.80 7.50L30.70 7.50ZM50.18 7.50L50.18 7.50Q50.53 7.50 50.74 7.71L50.74 7.71L50.74 7.71Q50.95 7.93 50.95 8.27L50.95 8.27L50.95 24.23L50.95 24.23Q50.93 24.57 50.70 24.79L50.70 24.79L50.70 24.79Q50.48 25 50.15 25L50.15 25L50.15 25Q49.83 25 49.60 24.77L49.60 24.77L49.60 24.77Q49.38 24.55 49.38 24.23L49.38 24.23L49.38 16.77L39.23 16.77L39.23 24.23L39.23 24.23Q39.20 24.55 38.98 24.77L38.98 24.77L38.98 24.77Q38.75 25 38.43 25L38.43 25L38.43 25Q38.08 25 37.86 24.79L37.86 24.79L37.86 24.79Q37.65 24.57 37.65 24.23L37.65 24.23L37.65 8.27L37.65 8.27Q37.65 7.93 37.88 7.71L37.88 7.71L37.88 7.71Q38.10 7.50 38.45 7.50L38.45 7.50L38.45 7.50Q38.78 7.50 39.00 7.72L39.00 7.72L39.00 7.72Q39.23 7.95 39.23 8.27L39.23 8.27L39.23 15.32L49.38 15.32L49.38 8.27L49.38 8.27Q49.38 7.95 49.61 7.72L49.61 7.72L49.61 7.72Q49.85 7.50 50.18 7.50L50.18 7.50ZM71.70 24L71.70 24Q71.75 24.20 71.75 24.30L71.75 24.30L71.75 24.30Q71.75 24.63 71.53 24.82L71.53 24.82L71.53 24.82Q71.30 25.02 71 25.02L71 25.02L71 25.02Q70.75 25.02 70.56 24.89L70.56 24.89L70.56 24.89Q70.38 24.75 70.28 24.52L70.28 24.52L68.40 19.95L60.28 19.95L58.43 24.52L58.43 24.52Q58.23 25.02 57.75 25.02L57.75 25.02L57.75 25.02Q57.40 25.02 57.23 24.85L57.23 24.85L57.23 24.85Q57.05 24.68 57.03 24.38L57.03 24.38L57.03 24.30L57.03 24.30Q57.03 24.15 57.05 24.07L57.05 24.07L63.65 7.93L63.65 7.93Q63.85 7.43 64.40 7.43L64.40 7.43L64.40 7.43Q64.65 7.43 64.84 7.56L64.84 7.56L64.84 7.56Q65.03 7.70 65.13 7.93L65.13 7.93L71.70 24ZM64.30 9.92L60.85 18.48L67.80 18.48L64.30 9.92ZM87.18 15.70L87.18 15.70Q88.68 16.07 89.63 17.20L89.63 17.20L89.63 17.20Q90.58 18.32 90.58 20.13L90.58 20.13L90.58 20.13Q90.58 22.57 89.06 23.79L89.06 23.79L89.06 23.79Q87.55 25 85.30 25L85.30 25L78.58 25L78.58 25Q78.25 25 78.04 24.79L78.04 24.79L78.04 24.79Q77.83 24.57 77.83 24.25L77.83 24.25L77.83 8.25L77.83 8.25Q77.83 7.93 78.04 7.71L78.04 7.71L78.04 7.71Q78.25 7.50 78.58 7.50L78.58 7.50L85.20 7.50L85.20 7.50Q87.30 7.50 88.49 8.65L88.49 8.65L88.49 8.65Q89.68 9.80 89.68 11.80L89.68 11.80L89.68 11.80Q89.68 13.13 89.03 14.17L89.03 14.17L89.03 14.17Q88.38 15.22 87.18 15.70L87.18 15.70ZM88.08 11.92L88.08 11.92Q88.08 10.55 87.26 9.76L87.26 9.76L87.26 9.76Q86.45 8.97 85.00 8.97L85.00 8.97L79.43 8.97L79.43 15.22L85.00 15.22L85.00 15.22Q86.35 15.20 87.21 14.35L87.21 14.35L87.21 14.35Q88.08 13.50 88.08 11.92L88.08 11.92ZM85.23 23.52L85.23 23.52Q86.90 23.52 87.94 22.68L87.94 22.68L87.94 22.68Q88.98 21.82 88.98 20.13L88.98 20.13L88.98 20.13Q88.98 18.38 87.91 17.55L87.91 17.55L87.91 17.55Q86.85 16.73 85.18 16.73L85.18 16.73L79.43 16.73L79.43 23.52L85.23 23.52ZM106.78 23.52L106.78 23.52Q107.10 23.52 107.31 23.73L107.31 23.73L107.31 23.73Q107.53 23.93 107.53 24.25L107.53 24.25L107.53 24.25Q107.53 24.57 107.31 24.79L107.31 24.79L107.31 24.79Q107.10 25 106.78 25L106.78 25L97.85 25L97.85 25Q97.53 25 97.31 24.79L97.31 24.79L97.31 24.79Q97.10 24.57 97.10 24.25L97.10 24.25L97.10 8.25L97.10 8.25Q97.10 7.93 97.33 7.71L97.33 7.71L97.33 7.71Q97.55 7.50 97.90 7.50L97.90 7.50L97.90 7.50Q98.23 7.50 98.45 7.71L98.45 7.71L98.45 7.71Q98.68 7.93 98.68 8.25L98.68 8.25L98.68 23.52L106.78 23.52ZM114.98 24.23L114.98 24.23Q114.95 24.55 114.73 24.77L114.73 24.77L114.73 24.77Q114.50 25 114.18 25L114.18 25L114.18 25Q113.83 25 113.61 24.79L113.61 24.79L113.61 24.79Q113.40 24.57 113.40 24.23L113.40 24.23L113.40 8.27L113.40 8.27Q113.40 7.93 113.63 7.71L113.63 7.71L113.63 7.71Q113.85 7.50 114.20 7.50L114.20 7.50L114.20 7.50Q114.53 7.50 114.75 7.72L114.75 7.72L114.75 7.72Q114.98 7.95 114.98 8.27L114.98 8.27L114.98 24.23ZM127.38 25.25L127.38 25.25Q125.58 25.25 124.19 24.65L124.19 24.65L124.19 24.65Q122.80 24.05 121.50 22.77L121.50 22.77L121.50 22.77Q121.20 22.52 121.20 22.18L121.20 22.18L121.20 22.18Q121.20 21.88 121.44 21.63L121.44 21.63L121.44 21.63Q121.68 21.38 121.98 21.38L121.98 21.38L121.98 21.38Q122.28 21.38 122.53 21.63L122.53 21.63L122.53 21.63Q124.48 23.77 127.40 23.77L127.40 23.77L127.40 23.77Q129.20 23.77 130.39 22.93L130.39 22.93L130.39 22.93Q131.58 22.07 131.58 20.70L131.58 20.70L131.58 20.70Q131.58 19.63 130.99 18.91L130.99 18.91L130.99 18.91Q130.40 18.20 129.45 17.75L129.45 17.75L129.45 17.75Q128.50 17.30 127.03 16.82L127.03 16.82L127.03 16.82Q125.43 16.35 124.34 15.78L124.34 15.78L124.34 15.78Q123.25 15.20 122.58 14.24L122.58 14.24L122.58 14.24Q121.90 13.27 121.90 11.80L121.90 11.80L121.90 11.80Q121.90 10.47 122.61 9.45L122.61 9.45L122.61 9.45Q123.33 8.43 124.61 7.84L124.61 7.84L124.61 7.84Q125.90 7.25 127.58 7.25L127.58 7.25L127.58 7.25Q129.10 7.25 130.44 7.76L130.44 7.76L130.44 7.76Q131.78 8.27 132.58 9.22L132.58 9.22L132.58 9.22Q132.95 9.65 132.95 9.95L132.95 9.95L132.95 9.95Q132.95 10.22 132.70 10.46L132.70 10.46L132.70 10.46Q132.45 10.70 132.15 10.70L132.15 10.70L132.15 10.70Q131.90 10.70 131.73 10.52L131.73 10.52L131.73 10.52Q131.05 9.72 129.93 9.22L129.93 9.22L129.93 9.22Q128.80 8.72 127.58 8.72L127.58 8.72L127.58 8.72Q125.75 8.72 124.60 9.54L124.60 9.54L124.60 9.54Q123.45 10.35 123.45 11.75L123.45 11.75L123.45 11.75Q123.45 13.20 124.55 13.97L124.55 13.97L124.55 13.97Q125.65 14.75 127.70 15.40L127.70 15.40L127.70 15.40Q129.48 15.92 130.60 16.48L130.60 16.48L130.60 16.48Q131.73 17.02 132.44 18.04L132.44 18.04L132.44 18.04Q133.15 19.05 133.15 20.70L133.15 20.70L133.15 20.70Q133.15 21.98 132.41 23.01L132.41 23.01L132.41 23.01Q131.68 24.05 130.36 24.65L130.36 24.65L130.36 24.65Q129.05 25.25 127.38 25.25L127.38 25.25ZM152.23 7.50L152.23 7.50Q152.58 7.50 152.79 7.71L152.79 7.71L152.79 7.71Q153.00 7.93 153.00 8.27L153.00 8.27L153.00 24.23L153.00 24.23Q152.98 24.57 152.75 24.79L152.75 24.79L152.75 24.79Q152.53 25 152.20 25L152.20 25L152.20 25Q151.88 25 151.65 24.77L151.65 24.77L151.65 24.77Q151.43 24.55 151.43 24.23L151.43 24.23L151.43 16.77L141.28 16.77L141.28 24.23L141.28 24.23Q141.25 24.55 141.03 24.77L141.03 24.77L141.03 24.77Q140.80 25 140.48 25L140.48 25L140.48 25Q140.13 25 139.91 24.79L139.91 24.79L139.91 24.79Q139.70 24.57 139.70 24.23L139.70 24.23L139.70 8.27L139.70 8.27Q139.70 7.93 139.93 7.71L139.93 7.71L139.93 7.71Q140.15 7.50 140.50 7.50L140.50 7.50L140.50 7.50Q140.83 7.50 141.05 7.72L141.05 7.72L141.05 7.72Q141.28 7.95 141.28 8.27L141.28 8.27L141.28 15.32L151.43 15.32L151.43 8.27L151.43 8.27Q151.43 7.95 151.66 7.72L151.66 7.72L151.66 7.72Q151.90 7.50 152.23 7.50L152.23 7.50Z"/></svg><svg class="svgSlogan" fill="#42444c" font-family="Voltaire" x="45" y="82.0"><path d="M3.70 10.66L3.70 7.45L4.79 7.45L4.79 11.94L4.79 11.94Q3.91 11.98 3.14 11.67L3.14 11.67L3.14 11.67Q2.36 11.37 1.78 10.75L1.78 10.75L1.78 10.75Q1.20 10.13 0.86 9.18L0.86 9.18L0.86 9.18Q0.52 8.24 0.52 7.00L0.52 7.00L0.52 7.00Q0.52 5.89 0.79 5.04L0.79 5.04L0.79 5.04Q1.05 4.18 1.49 3.59L1.49 3.59L1.49 3.59Q1.93 3.01 2.51 2.70L2.51 2.70L2.51 2.70Q3.09 2.40 3.73 2.40L3.73 2.40L3.73 2.40Q4.00 2.40 4.27 2.46L4.27 2.46L4.27 2.46Q4.54 2.51 4.83 2.64L4.83 2.64L4.34 3.58L4.34 3.58Q4.22 3.53 4.05 3.51L4.05 3.51L4.05 3.51Q3.88 3.48 3.75 3.48L3.75 3.48L3.75 3.48Q3.36 3.48 2.99 3.71L2.99 3.71L2.99 3.71Q2.61 3.94 2.32 4.38L2.32 4.38L2.32 4.38Q2.02 4.83 1.84 5.49L1.84 5.49L1.84 5.49Q1.65 6.15 1.65 7.01L1.65 7.01L1.65 7.01Q1.65 7.78 1.80 8.39L1.80 8.39L1.80 8.39Q1.96 9.01 2.23 9.47L2.23 9.47L2.23 9.47Q2.50 9.93 2.87 10.23L2.87 10.23L2.87 10.23Q3.25 10.53 3.70 10.66L3.70 10.66ZM6.15 9.89L6.15 9.89L6.15 9.89Q6.15 8.94 6.82 8.40L6.82 8.40L6.82 8.40Q7.49 7.85 8.79 7.79L8.79 7.79L8.79 7.66L8.79 7.66Q8.79 7.11 8.53 6.80L8.53 6.80L8.53 6.80Q8.27 6.49 7.82 6.49L7.82 6.49L7.82 6.49Q7.59 6.49 7.34 6.58L7.34 6.58L7.34 6.58Q7.09 6.66 6.84 6.80L6.84 6.80L6.45 5.87L6.45 5.87Q6.81 5.68 7.22 5.59L7.22 5.59L7.22 5.59Q7.62 5.50 7.95 5.50L7.95 5.50L7.95 5.50Q8.37 5.50 8.72 5.65L8.72 5.65L8.72 5.65Q9.06 5.79 9.31 6.07L9.31 6.07L9.31 6.07Q9.56 6.34 9.69 6.73L9.69 6.73L9.69 6.73Q9.83 7.13 9.83 7.62L9.83 7.62L9.83 11.95L9.06 11.57L9.06 11.57Q8.84 11.75 8.56 11.85L8.56 11.85L8.56 11.85Q8.29 11.95 7.97 11.95L7.97 11.95L7.97 11.95Q7.58 11.95 7.24 11.79L7.24 11.79L7.24 11.79Q6.90 11.63 6.66 11.35L6.66 11.35L6.66 11.35Q6.42 11.07 6.28 10.70L6.28 10.70L6.28 10.70Q6.15 10.32 6.15 9.89ZM7.21 9.91L7.21 9.91L7.21 9.91Q7.21 10.13 7.27 10.31L7.27 10.31L7.27 10.31Q7.34 10.49 7.45 10.63L7.45 10.63L7.45 10.63Q7.57 10.77 7.73 10.85L7.73 10.85L7.73 10.85Q7.90 10.92 8.10 10.92L8.10 10.92L8.10 10.92Q8.30 10.92 8.49 10.85L8.49 10.85L8.49 10.85Q8.68 10.77 8.79 10.65L8.79 10.65L8.79 8.72L8.79 8.72Q8.42 8.72 8.13 8.80L8.13 8.80L8.13 8.80Q7.83 8.88 7.63 9.03L7.63 9.03L7.63 9.03Q7.42 9.19 7.32 9.41L7.32 9.41L7.32 9.41Q7.21 9.63 7.21 9.91ZM11.26 11.53L11.67 10.61L11.67 10.61Q11.89 10.76 12.17 10.85L12.17 10.85L12.17 10.85Q12.45 10.94 12.72 10.94L12.72 10.94L12.72 10.94Q13.07 10.94 13.29 10.75L13.29 10.75L13.29 10.75Q13.51 10.56 13.51 10.25L13.51 10.25L13.51 10.25Q13.51 10.08 13.45 9.95L13.45 9.95L13.45 9.95Q13.38 9.81 13.28 9.68L13.28 9.68L13.28 9.68Q13.17 9.55 13.03 9.43L13.03 9.43L13.03 9.43Q12.90 9.32 12.75 9.20L12.75 9.20L12.35 8.88L12.35 8.88Q11.85 8.50 11.61 8.07L11.61 8.07L11.61 8.07Q11.37 7.63 11.37 7.14L11.37 7.14L11.37 7.14Q11.37 6.81 11.50 6.51L11.50 6.51L11.50 6.51Q11.63 6.22 11.87 5.99L11.87 5.99L11.87 5.99Q12.10 5.77 12.42 5.63L12.42 5.63L12.42 5.63Q12.75 5.50 13.14 5.50L13.14 5.50L13.14 5.50Q13.48 5.50 13.80 5.58L13.80 5.58L13.80 5.58Q14.12 5.65 14.45 5.82L14.45 5.82L14.02 6.79L14.02 6.79Q13.80 6.63 13.57 6.56L13.57 6.56L13.57 6.56Q13.35 6.49 13.12 6.49L13.12 6.49L13.12 6.49Q12.96 6.49 12.83 6.54L12.83 6.54L12.83 6.54Q12.70 6.59 12.61 6.68L12.61 6.68L12.61 6.68Q12.52 6.76 12.47 6.87L12.47 6.87L12.47 6.87Q12.43 6.98 12.43 7.10L12.43 7.10L12.43 7.10Q12.43 7.30 12.56 7.49L12.56 7.49L12.56 7.49Q12.69 7.69 13.01 7.95L13.01 7.95L13.46 8.33L13.46 8.33Q13.77 8.58 13.98 8.81L13.98 8.81L13.98 8.81Q14.20 9.04 14.33 9.27L14.33 9.27L14.33 9.27Q14.46 9.50 14.52 9.74L14.52 9.74L14.52 9.74Q14.58 9.98 14.58 10.24L14.58 10.24L14.58 10.24Q14.58 10.61 14.44 10.92L14.44 10.92L14.44 10.92Q14.30 11.23 14.04 11.46L14.04 11.46L14.04 11.46Q13.79 11.68 13.45 11.81L13.45 11.81L13.45 11.81Q13.10 11.94 12.70 11.94L12.70 11.94L12.70 11.94Q12.26 11.94 11.91 11.82L11.91 11.82L11.91 11.82Q11.56 11.71 11.26 11.53L11.26 11.53ZM16.01 11.84L16.01 2.50L17.06 2.50L17.06 11.84L16.01 11.84ZM20.77 11.95L20.77 11.95L20.77 11.95Q20.27 11.95 19.84 11.73L19.84 11.73L19.84 11.73Q19.42 11.51 19.10 11.09L19.10 11.09L19.10 11.09Q18.79 10.67 18.62 10.06L18.62 10.06L18.62 10.06Q18.44 9.46 18.44 8.68L18.44 8.68L18.44 8.68Q18.44 7.89 18.62 7.29L18.62 7.29L18.62 7.29Q18.80 6.70 19.11 6.30L19.11 6.30L19.11 6.30Q19.42 5.90 19.82 5.70L19.82 5.70L19.82 5.70Q20.22 5.50 20.65 5.50L20.65 5.50L20.65 5.50Q21.16 5.50 21.54 5.76L21.54 5.76L21.54 5.76Q21.92 6.02 22.14 6.50L22.14 6.50L22.14 6.50Q22.37 6.98 22.42 7.66L22.42 7.66L22.42 7.66Q22.47 8.34 22.32 9.17L22.32 9.17L19.52 9.16L19.52 9.16Q19.57 9.67 19.71 10.01L19.71 10.01L19.71 10.01Q19.85 10.35 20.04 10.56L20.04 10.56L20.04 10.56Q20.23 10.78 20.45 10.87L20.45 10.87L20.45 10.87Q20.67 10.96 20.89 10.96L20.89 10.96L20.89 10.96Q21.03 10.96 21.17 10.93L21.17 10.93L21.17 10.93Q21.30 10.90 21.43 10.85L21.43 10.85L21.43 10.85Q21.56 10.80 21.66 10.75L21.66 10.75L21.66 10.75Q21.77 10.69 21.84 10.63L21.84 10.63L22.24 11.53L22.24 11.53Q22.11 11.61 21.94 11.68L21.94 11.68L21.94 11.68Q21.77 11.76 21.58 11.82L21.58 11.82L21.58 11.82Q21.39 11.88 21.18 11.91L21.18 11.91L21.18 11.91Q20.97 11.95 20.77 11.95ZM19.53 8.19L21.36 8.19L21.36 8.19Q21.39 7.69 21.34 7.37L21.34 7.37L21.34 7.37Q21.29 7.05 21.19 6.86L21.19 6.86L21.19 6.86Q21.09 6.67 20.94 6.60L20.94 6.60L20.94 6.60Q20.79 6.53 20.63 6.53L20.63 6.53L20.63 6.53Q20.21 6.53 19.91 6.95L19.91 6.95L19.91 6.95Q19.61 7.37 19.53 8.19L19.53 8.19ZM23.54 11.53L23.94 10.61L23.94 10.61Q24.17 10.76 24.45 10.85L24.45 10.85L24.45 10.85Q24.72 10.94 25.00 10.94L25.00 10.94L25.00 10.94Q25.35 10.94 25.57 10.75L25.57 10.75L25.57 10.75Q25.79 10.56 25.79 10.25L25.79 10.25L25.79 10.25Q25.79 10.08 25.72 9.95L25.72 9.95L25.72 9.95Q25.66 9.81 25.55 9.68L25.55 9.68L25.55 9.68Q25.45 9.55 25.31 9.43L25.31 9.43L25.31 9.43Q25.17 9.32 25.03 9.20L25.03 9.20L24.63 8.88L24.63 8.88Q24.13 8.50 23.89 8.07L23.89 8.07L23.89 8.07Q23.65 7.63 23.65 7.14L23.65 7.14L23.65 7.14Q23.65 6.81 23.78 6.51L23.78 6.51L23.78 6.51Q23.91 6.22 24.14 5.99L24.14 5.99L24.14 5.99Q24.38 5.77 24.70 5.63L24.70 5.63L24.70 5.63Q25.03 5.50 25.42 5.50L25.42 5.50L25.42 5.50Q25.76 5.50 26.07 5.58L26.07 5.58L26.07 5.58Q26.39 5.65 26.72 5.82L26.72 5.82L26.29 6.79L26.29 6.79Q26.07 6.63 25.85 6.56L25.85 6.56L25.85 6.56Q25.62 6.49 25.39 6.49L25.39 6.49L25.39 6.49Q25.23 6.49 25.10 6.54L25.10 6.54L25.10 6.54Q24.97 6.59 24.88 6.68L24.88 6.68L24.88 6.68Q24.80 6.76 24.75 6.87L24.75 6.87L24.75 6.87Q24.70 6.98 24.70 7.10L24.70 7.10L24.70 7.10Q24.70 7.30 24.83 7.49L24.83 7.49L24.83 7.49Q24.96 7.69 25.28 7.95L25.28 7.95L25.74 8.33L25.74 8.33Q26.04 8.58 26.26 8.81L26.26 8.81L26.26 8.81Q26.47 9.04 26.60 9.27L26.60 9.27L26.60 9.27Q26.74 9.50 26.80 9.74L26.80 9.74L26.80 9.74Q26.86 9.98 26.86 10.24L26.86 10.24L26.86 10.24Q26.86 10.61 26.72 10.92L26.72 10.92L26.72 10.92Q26.57 11.23 26.32 11.46L26.32 11.46L26.32 11.46Q26.07 11.68 25.72 11.81L25.72 11.81L25.72 11.81Q25.38 11.94 24.97 11.94L24.97 11.94L24.97 11.94Q24.53 11.94 24.18 11.82L24.18 11.82L24.18 11.82Q23.84 11.71 23.54 11.53L23.54 11.53ZM28.01 11.53L28.42 10.61L28.42 10.61Q28.65 10.76 28.92 10.85L28.92 10.85L28.92 10.85Q29.20 10.94 29.47 10.94L29.47 10.94L29.47 10.94Q29.82 10.94 30.04 10.75L30.04 10.75L30.04 10.75Q30.26 10.56 30.26 10.25L30.26 10.25L30.26 10.25Q30.26 10.08 30.20 9.95L30.20 9.95L30.20 9.95Q30.13 9.81 30.03 9.68L30.03 9.68L30.03 9.68Q29.92 9.55 29.79 9.43L29.79 9.43L29.79 9.43Q29.65 9.32 29.50 9.20L29.50 9.20L29.10 8.88L29.10 8.88Q28.61 8.50 28.37 8.07L28.37 8.07L28.37 8.07Q28.13 7.63 28.13 7.14L28.13 7.14L28.13 7.14Q28.13 6.81 28.25 6.51L28.25 6.51L28.25 6.51Q28.38 6.22 28.62 5.99L28.62 5.99L28.62 5.99Q28.85 5.77 29.18 5.63L29.18 5.63L29.18 5.63Q29.50 5.50 29.89 5.50L29.89 5.50L29.89 5.50Q30.23 5.50 30.55 5.58L30.55 5.58L30.55 5.58Q30.87 5.65 31.20 5.82L31.20 5.82L30.77 6.79L30.77 6.79Q30.55 6.63 30.33 6.56L30.33 6.56L30.33 6.56Q30.10 6.49 29.87 6.49L29.87 6.49L29.87 6.49Q29.71 6.49 29.58 6.54L29.58 6.54L29.58 6.54Q29.45 6.59 29.36 6.68L29.36 6.68L29.36 6.68Q29.27 6.76 29.23 6.87L29.23 6.87L29.23 6.87Q29.18 6.98 29.18 7.10L29.18 7.10L29.18 7.10Q29.18 7.30 29.31 7.49L29.31 7.49L29.31 7.49Q29.44 7.69 29.76 7.95L29.76 7.95L30.22 8.33L30.22 8.33Q30.52 8.58 30.74 8.81L30.74 8.81L30.74 8.81Q30.95 9.04 31.08 9.27L31.08 9.27L31.08 9.27Q31.21 9.50 31.27 9.74L31.27 9.74L31.27 9.74Q31.34 9.98 31.34 10.24L31.34 10.24L31.34 10.24Q31.34 10.61 31.19 10.92L31.19 10.92L31.19 10.92Q31.05 11.23 30.80 11.46L30.80 11.46L30.80 11.46Q30.54 11.68 30.20 11.81L30.20 11.81L30.20 11.81Q29.85 11.94 29.45 11.94L29.45 11.94L29.45 11.94Q29.01 11.94 28.66 11.82L28.66 11.82L28.66 11.82Q28.31 11.71 28.01 11.53L28.01 11.53ZM34.97 11.84L34.97 2.50L38.12 2.50L38.12 3.53L36.06 3.53L36.06 7.12L37.82 7.12L37.82 8.15L36.06 8.15L36.06 10.80L38.12 10.80L38.12 11.84L34.97 11.84ZM39.66 11.84L39.66 5.50L40.52 6.11L40.52 6.11Q40.65 5.99 40.80 5.88L40.80 5.88L40.80 5.88Q40.96 5.77 41.14 5.69L41.14 5.69L41.14 5.69Q41.31 5.61 41.50 5.57L41.50 5.57L41.50 5.57Q41.68 5.52 41.87 5.52L41.87 5.52L41.87 5.52Q42.40 5.52 42.79 5.72L42.79 5.72L42.79 5.72Q43.17 5.91 43.41 6.29L43.41 6.29L43.41 6.29Q43.53 6.13 43.70 5.99L43.70 5.99L43.70 5.99Q43.88 5.85 44.07 5.75L44.07 5.75L44.07 5.75Q44.27 5.64 44.49 5.58L44.49 5.58L44.49 5.58Q44.71 5.52 44.92 5.52L44.92 5.52L44.92 5.52Q45.86 5.52 46.33 6.11L46.33 6.11L46.33 6.11Q46.80 6.70 46.80 7.80L46.80 7.80L46.80 11.84L45.76 11.84L45.76 7.82L45.76 7.82Q45.76 7.21 45.52 6.90L45.52 6.90L45.52 6.90Q45.28 6.58 44.80 6.58L44.80 6.58L44.80 6.58Q44.54 6.58 44.26 6.70L44.26 6.70L44.26 6.70Q43.98 6.83 43.75 7.09L43.75 7.09L43.75 11.84L42.71 11.84L42.71 7.82L42.71 7.82Q42.71 7.21 42.47 6.90L42.47 6.90L42.47 6.90Q42.22 6.58 41.75 6.58L41.75 6.58L41.75 6.58Q41.48 6.58 41.21 6.70L41.21 6.70L41.21 6.70Q40.93 6.83 40.71 7.08L40.71 7.08L40.71 11.84L39.66 11.84ZM48.26 9.89L48.26 9.89L48.26 9.89Q48.26 8.94 48.93 8.40L48.93 8.40L48.93 8.40Q49.60 7.85 50.91 7.79L50.91 7.79L50.91 7.66L50.91 7.66Q50.91 7.11 50.65 6.80L50.65 6.80L50.65 6.80Q50.38 6.49 49.93 6.49L49.93 6.49L49.93 6.49Q49.70 6.49 49.45 6.58L49.45 6.58L49.45 6.58Q49.20 6.66 48.96 6.80L48.96 6.80L48.56 5.87L48.56 5.87Q48.93 5.68 49.33 5.59L49.33 5.59L49.33 5.59Q49.73 5.50 50.06 5.50L50.06 5.50L50.06 5.50Q50.48 5.50 50.83 5.65L50.83 5.65L50.83 5.65Q51.18 5.79 51.42 6.07L51.42 6.07L51.42 6.07Q51.67 6.34 51.80 6.73L51.80 6.73L51.80 6.73Q51.94 7.13 51.94 7.62L51.94 7.62L51.94 11.95L51.17 11.57L51.17 11.57Q50.95 11.75 50.67 11.85L50.67 11.85L50.67 11.85Q50.40 11.95 50.09 11.95L50.09 11.95L50.09 11.95Q49.69 11.95 49.35 11.79L49.35 11.79L49.35 11.79Q49.01 11.63 48.77 11.35L48.77 11.35L48.77 11.35Q48.53 11.07 48.39 10.70L48.39 10.70L48.39 10.70Q48.26 10.32 48.26 9.89ZM49.32 9.91L49.32 9.91L49.32 9.91Q49.32 10.13 49.38 10.31L49.38 10.31L49.38 10.31Q49.45 10.49 49.56 10.63L49.56 10.63L49.56 10.63Q49.68 10.77 49.85 10.85L49.85 10.85L49.85 10.85Q50.01 10.92 50.21 10.92L50.21 10.92L50.21 10.92Q50.41 10.92 50.60 10.85L50.60 10.85L50.60 10.85Q50.79 10.77 50.91 10.65L50.91 10.65L50.91 8.72L50.91 8.72Q50.53 8.72 50.24 8.80L50.24 8.80L50.24 8.80Q49.95 8.88 49.74 9.03L49.74 9.03L49.74 9.03Q49.54 9.19 49.43 9.41L49.43 9.41L49.43 9.41Q49.32 9.63 49.32 9.91ZM54.35 4.55L54.35 4.55L54.35 4.55Q54.18 4.55 54.04 4.49L54.04 4.49L54.04 4.49Q53.89 4.43 53.79 4.33L53.79 4.33L53.79 4.33Q53.70 4.23 53.64 4.10L53.64 4.10L53.64 4.10Q53.59 3.97 53.59 3.82L53.59 3.82L53.59 3.82Q53.59 3.67 53.64 3.54L53.64 3.54L53.64 3.54Q53.70 3.41 53.79 3.31L53.79 3.31L53.79 3.31Q53.89 3.21 54.04 3.15L54.04 3.15L54.04 3.15Q54.18 3.09 54.35 3.09L54.35 3.09L54.35 3.09Q54.52 3.09 54.66 3.15L54.66 3.15L54.66 3.15Q54.80 3.21 54.90 3.31L54.90 3.31L54.90 3.31Q55.00 3.41 55.05 3.54L55.05 3.54L55.05 3.54Q55.10 3.67 55.10 3.82L55.10 3.82L55.10 3.82Q55.10 3.97 55.05 4.10L55.05 4.10L55.05 4.10Q55.00 4.23 54.90 4.33L54.90 4.33L54.90 4.33Q54.80 4.43 54.66 4.49L54.66 4.49L54.66 4.49Q54.52 4.55 54.35 4.55ZM53.79 11.84L53.79 5.61L54.83 5.61L54.83 11.84L53.79 11.84ZM56.74 11.84L56.74 2.50L57.79 2.50L57.79 11.84L56.74 11.84ZM63.60 12.12L60.88 2.50L62.06 2.50L63.35 7.49L63.59 8.61L63.85 7.49L65.14 2.50L66.31 2.50L63.60 12.12ZM69.33 11.95L69.33 11.95L69.33 11.95Q68.83 11.95 68.41 11.73L68.41 11.73L68.41 11.73Q67.98 11.51 67.67 11.09L67.67 11.09L67.67 11.09Q67.35 10.67 67.18 10.06L67.18 10.06L67.18 10.06Q67.00 9.46 67.00 8.68L67.00 8.68L67.00 8.68Q67.00 7.89 67.18 7.29L67.18 7.29L67.18 7.29Q67.37 6.70 67.67 6.30L67.67 6.30L67.67 6.30Q67.98 5.90 68.38 5.70L68.38 5.70L68.38 5.70Q68.78 5.50 69.22 5.50L69.22 5.50L69.22 5.50Q69.72 5.50 70.10 5.76L70.10 5.76L70.10 5.76Q70.48 6.02 70.71 6.50L70.71 6.50L70.71 6.50Q70.93 6.98 70.98 7.66L70.98 7.66L70.98 7.66Q71.03 8.34 70.89 9.17L70.89 9.17L68.09 9.16L68.09 9.16Q68.13 9.67 68.27 10.01L68.27 10.01L68.27 10.01Q68.41 10.35 68.60 10.56L68.60 10.56L68.60 10.56Q68.79 10.78 69.01 10.87L69.01 10.87L69.01 10.87Q69.23 10.96 69.46 10.96L69.46 10.96L69.46 10.96Q69.59 10.96 69.73 10.93L69.73 10.93L69.73 10.93Q69.87 10.90 69.99 10.85L69.99 10.85L69.99 10.85Q70.12 10.80 70.22 10.75L70.22 10.75L70.22 10.75Q70.33 10.69 70.40 10.63L70.40 10.63L70.80 11.53L70.80 11.53Q70.67 11.61 70.50 11.68L70.50 11.68L70.50 11.68Q70.33 11.76 70.14 11.82L70.14 11.82L70.14 11.82Q69.95 11.88 69.74 11.91L69.74 11.91L69.74 11.91Q69.53 11.95 69.33 11.95ZM68.09 8.19L69.93 8.19L69.93 8.19Q69.96 7.69 69.91 7.37L69.91 7.37L69.91 7.37Q69.86 7.05 69.75 6.86L69.75 6.86L69.75 6.86Q69.65 6.67 69.50 6.60L69.50 6.60L69.50 6.60Q69.36 6.53 69.19 6.53L69.19 6.53L69.19 6.53Q68.77 6.53 68.47 6.95L68.47 6.95L68.47 6.95Q68.17 7.37 68.09 8.19L68.09 8.19ZM72.38 11.84L72.38 5.50L73.26 6.12L73.26 6.12Q73.62 5.84 74.04 5.67L74.04 5.67L74.04 5.67Q74.46 5.51 74.90 5.51L74.90 5.51L74.90 6.60L74.90 6.60Q74.43 6.60 74.07 6.70L74.07 6.70L74.07 6.70Q73.71 6.80 73.45 7.08L73.45 7.08L73.45 11.84L72.38 11.84ZM76.77 4.55L76.77 4.55L76.77 4.55Q76.60 4.55 76.46 4.49L76.46 4.49L76.46 4.49Q76.32 4.43 76.22 4.33L76.22 4.33L76.22 4.33Q76.12 4.23 76.07 4.10L76.07 4.10L76.07 4.10Q76.01 3.97 76.01 3.82L76.01 3.82L76.01 3.82Q76.01 3.67 76.07 3.54L76.07 3.54L76.07 3.54Q76.12 3.41 76.22 3.31L76.22 3.31L76.22 3.31Q76.32 3.21 76.46 3.15L76.46 3.15L76.46 3.15Q76.60 3.09 76.77 3.09L76.77 3.09L76.77 3.09Q76.94 3.09 77.08 3.15L77.08 3.15L77.08 3.15Q77.22 3.21 77.32 3.31L77.32 3.31L77.32 3.31Q77.42 3.41 77.47 3.54L77.47 3.54L77.47 3.54Q77.53 3.67 77.53 3.82L77.53 3.82L77.53 3.82Q77.53 3.97 77.47 4.10L77.47 4.10L77.47 4.10Q77.42 4.23 77.32 4.33L77.32 4.33L77.32 4.33Q77.22 4.43 77.08 4.49L77.08 4.49L77.08 4.49Q76.94 4.55 76.77 4.55ZM76.21 11.84L76.21 5.61L77.26 5.61L77.26 11.84L76.21 11.84ZM79.22 11.84L79.22 6.60L78.75 6.60L78.75 5.61L79.22 5.61L79.22 5.26L79.22 5.26Q79.22 4.66 79.37 4.14L79.37 4.14L79.37 4.14Q79.52 3.63 79.80 3.24L79.80 3.24L79.80 3.24Q80.08 2.86 80.47 2.63L80.47 2.63L80.47 2.63Q80.86 2.41 81.35 2.39L81.35 2.39L81.35 3.42L81.35 3.42Q81.07 3.46 80.87 3.61L80.87 3.61L80.87 3.61Q80.66 3.77 80.53 4.01L80.53 4.01L80.53 4.01Q80.40 4.26 80.33 4.58L80.33 4.58L80.33 4.58Q80.27 4.90 80.27 5.27L80.27 5.27L80.27 5.61L81.31 5.61L81.31 6.60L80.27 6.60L80.27 11.84L79.22 11.84ZM83.17 4.55L83.17 4.55L83.17 4.55Q83.00 4.55 82.86 4.49L82.86 4.49L82.86 4.49Q82.72 4.43 82.62 4.33L82.62 4.33L82.62 4.33Q82.52 4.23 82.47 4.10L82.47 4.10L82.47 4.10Q82.42 3.97 82.42 3.82L82.42 3.82L82.42 3.82Q82.42 3.67 82.47 3.54L82.47 3.54L82.47 3.54Q82.52 3.41 82.62 3.31L82.62 3.31L82.62 3.31Q82.72 3.21 82.86 3.15L82.86 3.15L82.86 3.15Q83.00 3.09 83.17 3.09L83.17 3.09L83.17 3.09Q83.34 3.09 83.48 3.15L83.48 3.15L83.48 3.15Q83.63 3.21 83.72 3.31L83.72 3.31L83.72 3.31Q83.82 3.41 83.88 3.54L83.88 3.54L83.88 3.54Q83.93 3.67 83.93 3.82L83.93 3.82L83.93 3.82Q83.93 3.97 83.88 4.10L83.88 4.10L83.88 4.10Q83.82 4.23 83.72 4.33L83.72 4.33L83.72 4.33Q83.63 4.43 83.48 4.49L83.48 4.49L83.48 4.49Q83.34 4.55 83.17 4.55ZM82.62 11.84L82.62 5.61L83.66 5.61L83.66 11.84L82.62 11.84ZM87.53 11.95L87.53 11.95L87.53 11.95Q87.04 11.95 86.63 11.75L86.63 11.75L86.63 11.75Q86.21 11.55 85.90 11.14L85.90 11.14L85.90 11.14Q85.59 10.74 85.42 10.14L85.42 10.14L85.42 10.14Q85.25 9.53 85.25 8.72L85.25 8.72L85.25 8.72Q85.25 7.92 85.42 7.31L85.42 7.31L85.42 7.31Q85.59 6.71 85.90 6.30L85.90 6.30L85.90 6.30Q86.21 5.90 86.63 5.70L86.63 5.70L86.63 5.70Q87.04 5.50 87.53 5.50L87.53 5.50L87.53 5.50Q87.88 5.50 88.22 5.61L88.22 5.61L88.22 5.61Q88.55 5.72 88.80 5.88L88.80 5.88L88.37 6.79L88.37 6.79Q88.20 6.69 87.98 6.61L87.98 6.61L87.98 6.61Q87.76 6.53 87.53 6.53L87.53 6.53L87.53 6.53Q87.30 6.53 87.08 6.64L87.08 6.64L87.08 6.64Q86.87 6.76 86.69 7.03L86.69 7.03L86.69 7.03Q86.52 7.29 86.42 7.71L86.42 7.71L86.42 7.71Q86.31 8.13 86.31 8.72L86.31 8.72L86.31 8.72Q86.31 9.32 86.42 9.74L86.42 9.74L86.42 9.74Q86.52 10.16 86.69 10.42L86.69 10.42L86.69 10.42Q86.87 10.69 87.08 10.80L87.08 10.80L87.08 10.80Q87.30 10.92 87.53 10.92L87.53 10.92L87.53 10.92Q87.76 10.92 87.98 10.84L87.98 10.84L87.98 10.84Q88.20 10.76 88.37 10.66L88.37 10.66L88.80 11.57L88.80 11.57Q88.55 11.72 88.22 11.84L88.22 11.84L88.22 11.84Q87.88 11.95 87.53 11.95ZM89.79 9.89L89.79 9.89L89.79 9.89Q89.79 8.94 90.47 8.40L90.47 8.40L90.47 8.40Q91.14 7.85 92.44 7.79L92.44 7.79L92.44 7.66L92.44 7.66Q92.44 7.11 92.18 6.80L92.18 6.80L92.18 6.80Q91.92 6.49 91.47 6.49L91.47 6.49L91.47 6.49Q91.24 6.49 90.99 6.58L90.99 6.58L90.99 6.58Q90.74 6.66 90.49 6.80L90.49 6.80L90.09 5.87L90.09 5.87Q90.46 5.68 90.87 5.59L90.87 5.59L90.87 5.59Q91.27 5.50 91.60 5.50L91.60 5.50L91.60 5.50Q92.02 5.50 92.37 5.65L92.37 5.65L92.37 5.65Q92.71 5.79 92.96 6.07L92.96 6.07L92.96 6.07Q93.21 6.34 93.34 6.73L93.34 6.73L93.34 6.73Q93.47 7.13 93.47 7.62L93.47 7.62L93.47 11.95L92.71 11.57L92.71 11.57Q92.48 11.75 92.21 11.85L92.21 11.85L92.21 11.85Q91.94 11.95 91.62 11.95L91.62 11.95L91.62 11.95Q91.22 11.95 90.89 11.79L90.89 11.79L90.89 11.79Q90.55 11.63 90.31 11.35L90.31 11.35L90.31 11.35Q90.06 11.07 89.93 10.70L89.93 10.70L89.93 10.70Q89.79 10.32 89.79 9.89ZM90.86 9.91L90.86 9.91L90.86 9.91Q90.86 10.13 90.92 10.31L90.92 10.31L90.92 10.31Q90.98 10.49 91.10 10.63L91.10 10.63L91.10 10.63Q91.22 10.77 91.38 10.85L91.38 10.85L91.38 10.85Q91.55 10.92 91.75 10.92L91.75 10.92L91.75 10.92Q91.95 10.92 92.14 10.85L92.14 10.85L92.14 10.85Q92.33 10.77 92.44 10.65L92.44 10.65L92.44 8.72L92.44 8.72Q92.07 8.72 91.78 8.80L91.78 8.80L91.78 8.80Q91.48 8.88 91.28 9.03L91.28 9.03L91.28 9.03Q91.07 9.19 90.96 9.41L90.96 9.41L90.96 9.41Q90.86 9.63 90.86 9.91ZM95.37 9.36L95.37 6.60L94.91 6.60L94.91 5.61L95.37 5.61L95.37 3.54L96.42 3.54L96.42 5.61L97.41 5.61L97.41 6.60L96.42 6.60L96.42 9.38L96.42 9.38Q96.42 9.73 96.47 9.99L96.47 9.99L96.47 9.99Q96.53 10.25 96.66 10.44L96.66 10.44L96.66 10.44Q96.79 10.62 96.99 10.73L96.99 10.73L96.99 10.73Q97.20 10.85 97.49 10.90L97.49 10.90L97.49 11.94L97.49 11.94Q96.43 11.89 95.90 11.26L95.90 11.26L95.90 11.26Q95.37 10.63 95.37 9.36L95.37 9.36ZM99.59 4.55L99.59 4.55L99.59 4.55Q99.42 4.55 99.28 4.49L99.28 4.49L99.28 4.49Q99.14 4.43 99.04 4.33L99.04 4.33L99.04 4.33Q98.94 4.23 98.89 4.10L98.89 4.10L98.89 4.10Q98.84 3.97 98.84 3.82L98.84 3.82L98.84 3.82Q98.84 3.67 98.89 3.54L98.89 3.54L98.89 3.54Q98.94 3.41 99.04 3.31L99.04 3.31L99.04 3.31Q99.14 3.21 99.28 3.15L99.28 3.15L99.28 3.15Q99.42 3.09 99.59 3.09L99.59 3.09L99.59 3.09Q99.76 3.09 99.90 3.15L99.90 3.15L99.90 3.15Q100.04 3.21 100.14 3.31L100.14 3.31L100.14 3.31Q100.24 3.41 100.29 3.54L100.29 3.54L100.29 3.54Q100.35 3.67 100.35 3.82L100.35 3.82L100.35 3.82Q100.35 3.97 100.29 4.10L100.29 4.10L100.29 4.10Q100.24 4.23 100.14 4.33L100.14 4.33L100.14 4.33Q100.04 4.43 99.90 4.49L99.90 4.49L99.90 4.49Q99.76 4.55 99.59 4.55ZM99.04 11.84L99.04 5.61L100.08 5.61L100.08 11.84L99.04 11.84ZM103.89 11.95L103.89 11.95L103.89 11.95Q103.45 11.95 103.05 11.75L103.05 11.75L103.05 11.75Q102.64 11.55 102.33 11.14L102.33 11.14L102.33 11.14Q102.02 10.74 101.83 10.14L101.83 10.14L101.83 10.14Q101.64 9.53 101.64 8.72L101.64 8.72L101.64 8.72Q101.64 7.92 101.83 7.31L101.83 7.31L101.83 7.31Q102.02 6.71 102.33 6.30L102.33 6.30L102.33 6.30Q102.64 5.90 103.05 5.70L103.05 5.70L103.05 5.70Q103.45 5.50 103.89 5.50L103.89 5.50L103.89 5.50Q104.33 5.50 104.74 5.70L104.74 5.70L104.74 5.70Q105.14 5.90 105.45 6.30L105.45 6.30L105.45 6.30Q105.77 6.71 105.96 7.31L105.96 7.31L105.96 7.31Q106.14 7.92 106.14 8.72L106.14 8.72L106.14 8.72Q106.14 9.53 105.96 10.14L105.96 10.14L105.96 10.14Q105.77 10.74 105.45 11.14L105.45 11.14L105.45 11.14Q105.14 11.55 104.74 11.75L104.74 11.75L104.74 11.75Q104.33 11.95 103.89 11.95ZM103.89 10.92L103.89 10.92L103.89 10.92Q104.10 10.92 104.31 10.81L104.31 10.81L104.31 10.81Q104.51 10.69 104.68 10.44L104.68 10.44L104.68 10.44Q104.85 10.18 104.95 9.76L104.95 9.76L104.95 9.76Q105.05 9.33 105.05 8.72L105.05 8.72L105.05 8.72Q105.05 8.12 104.95 7.70L104.95 7.70L104.95 7.70Q104.85 7.28 104.68 7.02L104.68 7.02L104.68 7.02Q104.51 6.76 104.31 6.64L104.31 6.64L104.31 6.64Q104.10 6.53 103.89 6.53L103.89 6.53L103.89 6.53Q103.68 6.53 103.48 6.64L103.48 6.64L103.48 6.64Q103.27 6.76 103.10 7.02L103.10 7.02L103.10 7.02Q102.94 7.28 102.83 7.70L102.83 7.70L102.83 7.70Q102.73 8.12 102.73 8.72L102.73 8.72L102.73 8.72Q102.73 9.33 102.83 9.76L102.83 9.76L102.83 9.76Q102.94 10.18 103.10 10.44L103.10 10.44L103.10 10.44Q103.27 10.69 103.48 10.81L103.48 10.81L103.48 10.81Q103.68 10.92 103.89 10.92ZM107.50 11.84L107.50 5.50L108.38 6.13L108.38 6.13Q108.50 6 108.67 5.89L108.67 5.89L108.67 5.89Q108.83 5.78 109.01 5.70L109.01 5.70L109.01 5.70Q109.20 5.61 109.38 5.57L109.38 5.57L109.38 5.57Q109.57 5.52 109.76 5.52L109.76 5.52L109.76 5.52Q110.70 5.52 111.17 6.11L111.17 6.11L111.17 6.11Q111.64 6.70 111.64 7.80L111.64 7.80L111.64 11.84L110.60 11.84L110.60 7.82L110.60 7.82Q110.60 7.21 110.36 6.90L110.36 6.90L110.36 6.90Q110.12 6.58 109.64 6.58L109.64 6.58L109.64 6.58Q109.36 6.58 109.07 6.72L109.07 6.72L109.07 6.72Q108.78 6.86 108.54 7.15L108.54 7.15L108.54 11.84L107.50 11.84Z"/></svg></g></svg>